<?xml version="1.0" encoding="UTF-8" standalone="no"?>
<!DOCTYPE svg PUBLIC "-//W3C//DTD SVG 1.1//EN" "http://www.w3.org/Graphics/SVG/1.1/DTD/svg11.dtd">
<svg width="100%" height="100%" viewBox="0 0 540 145" version="1.1" xmlns="http://www.w3.org/2000/svg" xmlns:xlink="http://www.w3.org/1999/xlink" xml:space="preserve" xmlns:serif="http://www.serif.com/" style="fill-rule:evenodd;clip-rule:evenodd;stroke-linejoin:round;stroke-miterlimit:2;">
    <g transform="matrix(1,0,0,1,-20,-310)">
        <g transform="matrix(0.0635072,0,0,0.0635072,111.422,9.9966)">
            <g id="color">
                <g id="Logo">
                </g>
            </g>
        </g>
        <g transform="matrix(0.0635072,0,0,0.0635072,111.422,154.991)">
            <g id="light">
                <g id="Logo1" serif:id="Logo">
                </g>
            </g>
        </g>
        <g id="dark" transform="matrix(0.0846763,0,0,0.0846763,70.4837,252.625)">
            <g transform="matrix(9.16182,0,0,9.16287,4593.39,1545.33)">
                <path d="M0,-0.352C0,21.298 17.426,38.196 38.02,38.196C58.615,38.196 75.336,21.298 75.336,-0.352C75.336,-22.002 58.615,-38.548 38.02,-38.548C17.25,-38.548 0,-22.002 0,-0.352M103.852,-0.352C103.852,35.204 75.336,62.487 37.668,62.487C0,62.487 -28.515,35.38 -28.515,-0.352C-28.515,-36.26 0,-62.839 37.668,-62.839C75.336,-62.839 103.852,-36.083 103.852,-0.352" style="fill:rgb(52,55,59);fill-rule:nonzero;"/>
            </g>
            <g transform="matrix(9.16182,0,0,9.16287,3682.32,1895.31)">
                <path d="M0,-77.096L0,-46.821L49.177,-46.821C50.886,-46.821 52.526,-46.142 53.734,-44.934C54.943,-43.725 55.622,-42.086 55.622,-40.377C55.622,-37.151 55.622,-33.256 55.622,-30.03C55.622,-28.321 54.943,-26.682 53.734,-25.473C52.526,-24.265 50.886,-23.586 49.177,-23.586C34.53,-23.586 0,-23.586 0,-23.586L0,16.615C-0,20.174 -2.886,23.059 -6.445,23.059C-10.929,23.059 -16.882,23.059 -21.366,23.059C-24.925,23.059 -27.811,20.174 -27.811,16.615C-27.811,-4.651 -27.811,-72.445 -27.811,-93.711C-27.811,-97.27 -24.925,-100.155 -21.366,-100.155C-5.033,-100.155 37.845,-100.155 54.232,-100.155C55.949,-100.155 57.596,-99.469 58.806,-98.25C60.016,-97.031 60.69,-95.379 60.676,-93.662C60.652,-90.479 60.623,-86.66 60.599,-83.491C60.572,-79.951 57.694,-77.096 54.154,-77.096C38.588,-77.096 0,-77.096 0,-77.096Z" style="fill:rgb(52,55,59);fill-rule:nonzero;"/>
            </g>
            <g transform="matrix(9.16182,0,0,9.16287,3248.28,1930.8)">
                <path d="M-11.699,-70.246C-12.807,-68.898 -14.414,-68.057 -16.153,-67.914C-17.891,-67.771 -19.614,-68.34 -20.926,-69.489C-28.845,-76.469 -38.777,-80.793 -48.229,-80.793C-69.352,-80.793 -85.721,-64.424 -85.721,-42.95C-85.721,-21.475 -69.352,-4.929 -48.229,-4.929C-38.914,-4.929 -28.853,-8.903 -20.655,-15.393C-18.018,-17.483 -14.215,-17.185 -11.936,-14.71C-9.524,-12.12 -6.541,-8.881 -4.138,-6.27C-2.955,-4.986 -2.343,-3.276 -2.444,-1.533C-2.544,0.21 -3.348,1.838 -4.671,2.977C-17.298,13.715 -33.81,20.418 -49.637,20.418C-86.425,20.418 -114.236,-6.865 -114.236,-42.597C-114.236,-78.153 -85.897,-104.908 -48.581,-104.908C-32.95,-104.908 -16.639,-98.785 -4.673,-88.812C-1.991,-86.546 -1.627,-82.546 -3.855,-79.834C-6.196,-76.947 -9.229,-73.254 -11.699,-70.246Z" style="fill:rgb(52,55,59);fill-rule:nonzero;"/>
            </g>
            <g transform="matrix(11.8097,0,0,11.8097,-1675.7,-829.578)">
                <g id="Logo2" serif:id="Logo">
                    <path d="M263.927,147.636C292.906,147.636 316.433,171.163 316.433,200.142C316.433,229.121 292.906,252.648 263.927,252.648C234.948,252.648 211.421,229.121 211.421,200.142C211.421,171.163 234.948,147.636 263.927,147.636ZM285.138,218.697C287.481,216.354 287.481,212.555 285.138,210.212C280.43,205.504 272.878,197.952 268.17,193.244C265.827,190.901 262.028,190.901 259.685,193.244C254.977,197.952 247.424,205.504 242.716,210.212C240.373,212.555 240.373,216.354 242.716,218.697C247.424,223.405 254.977,230.957 259.685,235.665C262.028,238.008 265.827,238.008 268.17,235.665C272.878,230.957 280.43,223.405 285.138,218.697ZM273.825,176.76C274.575,176.009 274.997,174.992 274.997,173.931C274.997,172.87 274.575,171.853 273.825,171.103C271.721,168.998 268.86,166.138 266.755,164.033C266.005,163.283 264.988,162.861 263.927,162.861C262.866,162.861 261.849,163.283 261.099,164.033C258.994,166.138 256.133,168.998 254.029,171.103C253.279,171.853 252.857,172.87 252.857,173.931C252.857,174.992 253.279,176.009 254.029,176.76C256.133,178.864 258.994,181.725 261.099,183.829C261.849,184.58 262.866,185.001 263.927,185.001C264.988,185.001 266.005,184.58 266.755,183.829C268.86,181.725 271.721,178.864 273.825,176.76Z" style="fill:rgb(52,55,59);"/>
                </g>
            </g>
            <g transform="matrix(9.16287,0,0,9.16287,430.272,969.539)">
                <path d="M3.209,123.214C1.188,123.214 -0.716,122.266 -1.934,120.653C-12.181,107.081 -59.671,44.181 -59.671,44.181L-59.671,116.77C-59.671,120.329 -62.556,123.214 -66.115,123.214C-70.27,123.214 -75.651,123.214 -79.806,123.214C-83.365,123.214 -86.25,120.329 -86.25,116.77C-86.25,95.504 -86.25,27.71 -86.25,6.444C-86.25,2.885 -83.365,-0 -79.806,-0C-74.789,0 -68.04,0 -64.111,-0C-62.091,-0 -60.187,0.948 -58.969,2.56C-48.704,16.146 -1.057,79.21 -1.057,79.21L-1.057,6.444C-1.057,4.735 -0.378,3.096 0.831,1.887C2.039,0.679 3.678,-0 5.387,0C9.494,0 14.795,0 18.902,0C20.611,-0 22.25,0.679 23.458,1.887C24.667,3.096 25.346,4.735 25.346,6.444C25.346,27.71 25.346,95.504 25.346,116.77C25.346,120.329 22.461,123.214 18.902,123.214C13.886,123.214 7.138,123.214 3.209,123.214Z" style="fill:rgb(52,55,59);fill-rule:nonzero;"/>
            </g>
        </g>
    </g>
</svg>
